<?xml version="1.0" standalone="no"?>
<!DOCTYPE svg PUBLIC "-//W3C//DTD SVG 20010904//EN"
 "http://www.w3.org/TR/2001/REC-SVG-20010904/DTD/svg10.dtd">
<svg version="1.0" xmlns="http://www.w3.org/2000/svg"
 width="512.000000pt" height="512.000000pt" viewBox="0 0 512.000000 512.000000"
 preserveAspectRatio="xMidYMid meet">
<metadata>
Created by potrace 1.16, written by Peter Selinger 2001-2019
</metadata>
<g transform="translate(0.000000,512.000000) scale(0.100000,-0.100000)"
fill="#000000" stroke="none">
<path d="M3335 4696 c-48 -21 -361 -265 -380 -296 -11 -18 -83 -50 -113 -50
-16 0 -50 -7 -76 -16 -40 -14 -50 -14 -56 -3 -7 11 -12 10 -28 -4 -11 -10 -35
-20 -55 -24 -34 -5 -35 -4 -29 23 5 29 5 29 -16 10 -27 -23 -73 -31 -65 -10 7
20 -4 17 -35 -6 -50 -40 -145 2 -267 118 -186 177 -299 252 -378 252 -76 0
-124 -58 -146 -175 -15 -83 -14 -285 4 -391 7 -49 19 -122 25 -161 9 -55 21
-87 50 -131 67 -104 65 -120 -17 -184 -39 -30 -51 -44 -40 -46 25 -5 20 -14
-23 -47 -21 -16 -39 -33 -40 -37 0 -5 18 -8 40 -8 22 0 40 -4 40 -8 0 -12 -52
-83 -76 -103 -10 -10 -28 -19 -39 -21 -16 -4 -11 -9 25 -26 25 -12 54 -22 65
-22 14 0 7 -7 -20 -20 l-40 -19 45 6 45 6 -25 -28 c-14 -15 -43 -36 -65 -48
-47 -24 -33 -35 19 -13 20 8 36 12 36 8 0 -4 -11 -27 -25 -51 -14 -23 -25 -45
-25 -48 0 -3 18 -2 39 2 l40 7 -29 -76 c-16 -41 -40 -97 -55 -125 -30 -60 -31
-65 -6 -52 18 10 18 9 0 -50 -22 -71 -24 -106 -6 -112 12 -4 6 -26 -28 -112
-8 -18 -6 -18 17 3 l25 23 5 -48 c3 -27 17 -75 31 -107 45 -98 34 -169 -41
-248 -43 -46 -3 -32 44 15 31 31 45 40 49 29 10 -28 5 -91 -15 -155 -29 -94
-63 -131 -135 -147 l-30 -7 25 -10 c29 -12 64 -2 97 29 23 22 83 154 83 184 0
22 55 -88 125 -248 48 -111 55 -135 56 -195 0 -37 4 -92 8 -120 4 -29 5 -53 2
-52 -3 0 -23 36 -44 79 -21 43 -53 91 -70 106 -29 27 -30 27 -14 4 40 -59 41
-62 15 -55 -19 5 -20 4 -8 -5 12 -9 12 -13 2 -17 -9 -3 -11 -16 -6 -40 6 -34
6 -35 -17 -23 -13 7 2 -13 35 -44 32 -31 56 -59 54 -61 -2 -3 -22 4 -43 15
-22 11 -45 20 -51 20 -12 0 92 -215 165 -343 38 -67 34 -80 -32 -98 -45 -12
-51 -8 -99 61 l-18 25 10 -28 c5 -15 16 -40 25 -57 28 -54 17 -65 -19 -20 -58
73 -144 256 -172 365 -21 82 -25 116 -21 190 2 50 1 81 -4 70 -15 -38 -9 -189
10 -271 11 -43 21 -124 24 -179 4 -110 24 -166 89 -248 35 -44 25 -41 -54 15
-50 36 -69 58 -112 128 -17 27 -25 35 -20 20 12 -43 34 -81 76 -126 45 -49 44
-50 -27 -29 -58 18 -134 86 -161 146 -9 22 -19 37 -21 35 -10 -9 39 -85 89
-141 30 -33 60 -71 67 -83 12 -22 11 -23 -11 -17 -38 13 -127 88 -141 120 -8
16 -19 41 -25 55 -9 22 -11 23 -11 5 -1 -21 16 -58 58 -128 13 -20 21 -37 18
-37 -26 0 -142 279 -123 297 3 4 6 -1 6 -9 0 -9 7 -22 17 -29 15 -13 15 -10 9
32 -8 52 13 169 39 218 8 17 13 31 10 31 -9 0 -46 -82 -55 -123 -7 -32 -8 -18
-5 55 5 112 29 193 83 283 66 111 108 160 151 179 37 17 39 20 23 32 -20 15
-36 18 -28 5 3 -5 -19 -20 -49 -35 -56 -26 -138 -94 -157 -129 -13 -24 -1 -18
62 33 67 55 79 59 38 12 -50 -55 -105 -167 -128 -258 -29 -113 -30 -356 -1
-444 40 -125 115 -227 225 -304 46 -33 147 -89 183 -102 2 0 -3 -15 -9 -32
-10 -25 -20 -33 -48 -38 -19 -3 -80 -17 -136 -29 -167 -39 -216 -67 -165 -95
11 -5 64 -15 118 -21 54 -6 148 -17 209 -25 61 -8 155 -14 210 -15 83 -1 93
-2 65 -11 -19 -5 -44 -16 -55 -23 -19 -14 -19 -14 5 -23 52 -19 229 -34 347
-30 107 4 125 7 153 27 l31 23 111 -15 c244 -34 304 -39 396 -33 111 8 151 26
166 74 l9 32 93 0 c103 0 144 12 182 53 35 39 39 109 9 167 l-23 45 64 65
c118 119 188 247 217 398 16 85 19 228 4 237 -5 3 -10 43 -10 88 -1 151 -34
241 -142 385 -88 116 -123 183 -137 257 -8 42 -6 54 20 110 17 34 35 90 41
123 6 34 15 59 19 56 26 -16 31 200 6 291 -13 50 -13 57 -1 41 13 -19 14 -19
14 8 0 34 -42 161 -75 227 -14 27 -23 54 -20 58 2 5 21 12 40 15 34 7 35 8 20
29 -20 29 -19 40 4 27 11 -5 22 -10 25 -10 10 0 7 77 -4 106 -15 38 -6 41 37
9 20 -16 34 -22 31 -14 -4 8 -22 48 -41 89 l-35 76 34 -4 c36 -4 44 7 18 28
-8 8 -20 22 -25 33 -9 16 -8 18 10 12 24 -7 27 1 8 24 -7 9 -26 36 -41 60
l-28 44 27 -7 c16 -4 24 -3 21 3 -3 5 0 12 6 15 9 3 3 13 -17 28 -62 47 -116
102 -121 122 -2 12 5 48 16 81 12 34 25 105 30 165 5 58 16 129 24 159 38 132
39 398 1 470 -33 65 -94 86 -160 57z m115 -36 c35 -35 42 -70 48 -210 5 -163
-13 -269 -65 -375 -23 -48 -27 -63 -13 -46 l20 23 0 -39 c0 -66 -12 -136 -21
-122 -5 9 -12 -3 -21 -34 -6 -26 -15 -47 -18 -47 -3 0 -36 28 -74 62 l-68 62
30 25 c37 30 92 99 92 114 0 6 -10 2 -22 -9 -17 -15 -14 -5 14 48 20 36 34 68
32 71 -3 3 0 8 7 13 8 5 10 3 5 -7 -4 -8 -1 -5 8 5 8 10 13 22 10 27 -2 4 4
25 15 46 11 21 23 50 26 64 10 39 -19 33 -39 -9 -24 -50 -29 -34 -7 24 26 68
36 134 21 134 -15 0 -4 71 12 81 10 7 -6 49 -19 49 -3 0 -4 -3 0 -6 8 -9 -11
-25 -56 -49 -21 -11 -46 -29 -55 -39 -17 -19 -16 -19 8 -4 14 9 36 19 50 22
24 7 24 6 -5 -18 -16 -14 -24 -26 -17 -26 22 0 13 -16 -20 -33 -27 -15 -29
-17 -8 -13 24 5 23 4 -8 -25 -38 -35 -40 -43 -11 -36 33 9 11 -8 -48 -38 -29
-14 -53 -31 -53 -38 0 -7 4 -6 10 3 5 8 10 12 10 8 0 -4 23 1 51 13 74 28 82
18 21 -25 -58 -42 -64 -51 -27 -42 14 4 25 4 25 1 0 -3 -28 -26 -62 -51 -35
-25 -65 -48 -68 -50 -2 -3 22 7 53 21 31 13 57 20 57 15 0 -6 -42 -37 -92 -70
-51 -33 -85 -60 -76 -60 9 0 24 7 32 16 9 8 16 13 16 10 0 -3 19 1 41 9 23 8
46 15 52 15 22 0 -69 -60 -101 -66 -18 -3 -35 -11 -39 -17 -4 -6 4 -8 23 -4
27 5 27 4 9 -9 -10 -8 -22 -14 -27 -14 -23 0 -2 -17 40 -32 46 -17 93 -60 304
-278 29 -30 62 -61 73 -68 19 -12 18 -12 -5 -6 -14 4 -38 17 -55 29 -82 61
-88 58 -25 -11 96 -104 121 -157 59 -123 -37 19 -37 4 -2 -36 20 -22 32 -34
28 -26 -5 9 -4 12 3 7 13 -8 -2 -46 -18 -46 -10 0 39 -103 52 -108 4 -2 8 -9
8 -14 0 -6 -12 0 -27 15 -88 82 -145 126 -179 137 -22 7 -80 34 -131 60 -50
26 -111 50 -135 53 -57 7 -123 -6 -159 -32 -27 -20 -29 -20 -30 -4 -1 20 -24
-77 -35 -144 -4 -23 -4 -49 0 -58 5 -14 10 -12 34 13 19 20 44 33 80 41 69 14
95 33 132 92 36 60 51 61 134 15 34 -18 78 -39 99 -46 69 -22 121 -81 158
-178 l10 -27 -28 26 c-33 32 -122 89 -137 89 -6 0 9 -12 34 -26 70 -40 119
-91 135 -142 6 -20 4 -23 -12 -18 -63 18 -76 19 -70 3 5 -13 -5 -17 -51 -23
-31 -4 -79 -15 -107 -25 -61 -22 -48 -24 19 -4 54 16 142 20 150 6 3 -5 -13
-11 -37 -15 -71 -11 -282 -69 -268 -74 7 -2 -6 -13 -29 -23 -23 -10 -47 -16
-53 -12 -6 4 -7 1 -2 -7 6 -10 4 -12 -9 -7 -11 5 -15 3 -10 -5 4 -6 3 -8 -3
-5 -6 4 -16 0 -23 -8 -16 -19 -7 -19 31 1 17 8 36 13 42 10 7 -2 4 -5 -6 -5
-12 -1 -16 -6 -11 -13 4 -7 3 -10 -1 -5 -5 4 -24 -7 -42 -25 -18 -17 -33 -27
-33 -20 0 7 6 12 13 12 9 0 9 2 -1 9 -8 4 -13 12 -12 17 4 30 153 148 218 174
18 7 31 15 28 17 -7 7 -92 -33 -133 -63 -21 -15 -56 -44 -77 -63 -70 -65 -19
6 69 94 68 68 132 104 208 115 l52 8 -51 1 c-36 1 -65 -6 -102 -25 -87 -43
-226 -191 -235 -251 -1 -11 -9 -29 -17 -40 -13 -16 -13 -17 1 -6 15 12 29 8
29 -8 0 -4 -12 -22 -27 -41 l-27 -33 28 25 28 25 -7 -25 c-30 -101 -109 -158
-204 -148 l-33 3 47 33 c73 52 92 124 43 169 -24 21 -147 31 -190 14 -36 -14
-62 -54 -54 -86 8 -32 61 -92 99 -112 37 -19 21 -33 -39 -33 -90 0 -181 43
-237 113 -25 31 -28 39 -17 50 8 7 11 8 7 1 -4 -7 9 -18 33 -28 51 -20 77 -20
30 0 -19 8 -37 14 -39 14 -2 -1 -8 5 -13 14 -5 9 -15 13 -25 9 -10 -4 -14 -2
-10 4 4 6 0 13 -8 17 -8 3 -15 11 -15 18 0 7 -9 19 -20 26 -12 7 -18 17 -15
21 14 24 -214 92 -300 90 -16 0 6 -7 50 -15 100 -17 145 -37 67 -29 -72 8
-172 -4 -166 -19 3 -7 -18 -23 -47 -37 -59 -27 -135 -97 -162 -149 l-18 -35
22 30 c47 62 117 121 184 155 62 31 78 35 145 34 81 0 180 -25 200 -49 11 -13
1 -14 -81 -9 -60 4 -110 2 -138 -5 -58 -17 -48 -21 18 -9 30 5 71 6 90 2 26
-5 30 -8 16 -11 -45 -9 -127 -34 -123 -38 2 -2 28 2 58 10 71 19 170 19 196 1
16 -12 16 -15 4 -20 -8 -2 -38 -12 -66 -21 -28 -8 -72 -29 -97 -45 -56 -35
-148 -145 -187 -224 l-30 -59 0 55 c0 64 14 101 65 178 35 52 16 38 -33 -25
l-23 -30 6 29 c3 17 15 44 27 60 l20 31 -26 -28 c-31 -34 -44 -79 -52 -182
-12 -146 52 -348 142 -450 l35 -40 -21 42 c-30 64 -24 65 11 3 16 -30 34 -59
39 -64 6 -6 7 40 4 120 -6 121 2 195 30 289 4 11 0 6 -8 -10 -20 -43 -46 -174
-47 -237 l-1 -53 -13 30 c-27 57 -17 206 20 310 6 16 5 17 -4 5 -26 -36 -55
-157 -55 -237 -1 -46 -2 -83 -4 -83 -2 0 -22 39 -45 88 -57 118 -58 176 -4
284 65 132 182 227 300 244 44 6 47 5 47 -15 0 -15 4 -20 12 -15 7 5 -3 -8
-23 -28 -38 -37 -60 -99 -58 -160 1 -23 4 -15 10 24 9 64 27 104 58 132 22 20
22 20 48 -7 l27 -26 -24 -48 c-29 -59 -35 -122 -16 -193 l15 -55 -7 50 c-10
75 -6 149 11 182 30 57 37 57 122 3 88 -55 122 -65 200 -57 37 4 55 2 58 -6 2
-7 3 -4 2 5 -2 10 16 28 47 48 l51 31 -7 -51 c-4 -28 -20 -87 -37 -132 -16
-44 -28 -83 -25 -85 9 -10 67 162 73 217 3 34 10 63 16 67 6 3 23 -9 40 -28
l29 -34 -27 38 c-26 37 -26 39 -9 64 l17 27 33 -37 c19 -20 34 -34 34 -30 0 4
-14 21 -30 38 -28 29 -30 34 -19 59 10 20 17 25 33 20 37 -11 80 -36 126 -71
l45 -35 -40 38 c-22 20 -67 50 -100 66 l-60 29 70 -4 c67 -4 62 1 -17 18 -36
7 -35 16 5 40 88 53 257 -6 338 -118 36 -50 38 -41 3 13 -43 64 -138 118 -239
136 -33 5 -37 8 -20 14 11 5 38 10 60 11 l40 2 -45 6 -45 6 48 13 c26 7 50 19
54 27 3 9 10 15 17 14 6 -1 18 1 26 4 20 8 134 37 136 34 1 -1 23 -49 48 -106
l45 -104 -36 42 c-19 23 -37 40 -40 38 -2 -3 10 -27 28 -55 21 -35 30 -59 27
-76 -3 -14 -1 -23 4 -20 5 3 8 0 7 -7 -2 -8 3 -38 9 -67 7 -29 12 -85 11 -125
-1 -71 -1 -71 -13 -37 -13 34 -13 32 -10 -35 3 -69 3 -69 -5 -15 -7 50 -43
150 -54 150 -3 0 3 -23 14 -50 10 -28 19 -65 19 -83 l0 -32 -20 43 c-25 55
-31 53 -15 -6 13 -45 26 -206 15 -196 -2 3 -10 -12 -16 -33 l-12 -38 -2 45 -2
45 -9 -40 c-16 -72 -42 -129 -77 -172 -19 -24 -39 -40 -45 -36 -6 4 -8 0 -4
-10 3 -9 2 -19 -3 -22 -10 -6 -6 31 9 68 16 42 7 33 -33 -33 -42 -68 -109
-130 -114 -105 -2 8 -8 15 -14 15 -7 0 -6 6 2 17 6 10 -10 -6 -37 -36 -26 -29
-78 -84 -114 -121 l-66 -67 38 66 c48 82 49 98 3 46 -30 -34 -34 -36 -28 -15
8 30 -87 -94 -117 -152 -25 -48 -59 -179 -59 -225 0 -18 -14 -61 -31 -95 -36
-72 -99 -168 -109 -168 -4 0 -11 -10 -15 -22 -7 -20 -9 -17 -13 17 l-6 40 -5
-40 -6 -40 -37 75 c-20 41 -46 109 -57 150 -14 53 -20 66 -20 43 -1 -17 8 -60
19 -95 23 -74 25 -93 5 -58 -33 58 -54 147 -57 242 -2 54 -5 98 -9 98 -3 0
-15 21 -27 46 -20 41 -178 254 -188 254 -5 0 19 -49 53 -105 l24 -40 -31 35
c-18 19 -45 59 -62 88 -38 67 -49 60 -15 -10 14 -29 25 -54 23 -56 -7 -7 -95
105 -119 153 -25 47 -26 48 -20 15 3 -19 12 -51 19 -70 l14 -35 -40 45 c-70
79 -112 181 -133 320 -3 14 -5 3 -6 -23 0 -28 9 -78 23 -120 26 -78 74 -187
82 -187 3 0 3 3 0 8 -2 4 42 -39 99 -96 102 -100 145 -151 145 -169 0 -5 -18
-17 -41 -27 -36 -16 -40 -21 -36 -45 3 -15 11 -68 18 -117 6 -49 13 -91 15
-93 1 -2 0 54 -3 123 -6 115 -5 126 10 120 26 -10 84 -138 121 -269 26 -89 36
-149 41 -235 4 -63 18 -170 31 -237 14 -69 24 -158 24 -205 0 -69 4 -92 25
-132 32 -63 35 -152 6 -187 -16 -20 -21 -21 -35 -10 -10 9 -16 10 -16 2 0 -6
-4 -11 -10 -11 -5 0 -7 21 -3 49 3 27 2 71 -3 98 l-8 48 -7 -74 c-9 -92 -30
-125 -83 -129 -60 -5 -68 9 -64 107 2 47 7 89 11 92 5 3 9 12 10 20 2 8 6 20
11 27 7 11 4 12 -11 3 -21 -11 -47 -56 -59 -104 -5 -22 -9 -25 -16 -15 -9 14
-3 -41 12 -99 9 -37 9 -37 -42 -22 -45 12 -68 49 -68 106 0 47 30 113 61 139
28 22 34 56 33 169 -1 94 -26 198 -120 496 -70 222 -94 330 -94 415 0 43 -8
70 -39 132 -37 75 -95 222 -89 228 2 1 16 -22 32 -52 16 -30 46 -73 68 -97 30
-32 35 -35 21 -12 -62 97 -139 247 -149 290 -7 29 -13 40 -13 25 0 -14 3 -42
8 -62 5 -21 7 -38 5 -38 -9 0 -42 87 -49 129 -7 41 8 101 25 101 5 0 20 -21
35 -46 21 -36 30 -43 37 -33 7 10 8 8 3 -8 -3 -12 -1 -24 5 -28 6 -4 10 15 10
54 0 62 -19 88 -21 29 l-1 -33 -15 35 c-9 19 -22 58 -29 85 l-12 50 -2 -40 -2
-40 -14 55 c-8 31 -13 79 -10 110 3 37 2 47 -4 30 -4 -14 -9 -47 -10 -75 -1
-27 -7 -66 -14 -85 l-13 -35 -6 64 c-4 35 -7 81 -7 102 0 53 -18 50 -22 -3
l-3 -43 -9 50 c-6 32 -5 73 2 115 6 35 9 66 8 68 -2 2 -11 -16 -20 -40 -15
-40 -15 -40 -10 -8 4 19 14 52 24 73 13 26 15 37 6 37 -7 0 -20 -16 -30 -36
-9 -20 -19 -34 -21 -32 -8 8 36 162 56 196 23 40 24 49 4 32 -20 -16 -19 -14
9 55 18 44 32 63 62 81 22 13 47 24 57 24 9 0 17 5 17 10 0 6 -20 10 -45 10
-25 0 -45 4 -45 8 0 5 17 25 37 46 l37 37 -50 -22 c-27 -12 -55 -26 -61 -31
-9 -8 -13 -6 -13 5 0 9 26 44 58 79 51 56 53 59 17 32 -62 -48 -72 -51 -41
-14 l29 35 -24 5 c-24 6 -24 6 3 12 16 3 25 1 21 -5 -18 -29 130 46 202 103
73 57 119 80 164 80 35 0 43 -5 75 -48 39 -53 87 -82 178 -107 37 -10 64 -24
77 -41 18 -23 22 -24 27 -10 10 25 -4 105 -24 145 -10 19 -35 49 -56 65 -36
30 -42 31 -129 31 -125 -1 -207 -24 -278 -79 -70 -54 -85 -62 -172 -92 -44
-15 -93 -24 -131 -24 l-61 0 35 21 c40 24 114 89 102 89 -4 0 -18 -7 -30 -16
-32 -22 -28 0 8 46 l30 38 -48 -5 -47 -5 33 34 c18 19 32 39 31 44 -1 5 59 71
135 147 101 101 152 145 196 167 33 17 67 30 77 31 10 0 -2 10 -27 21 -55 25
-41 33 23 14 26 -8 47 -12 47 -10 0 2 -28 22 -63 44 -58 37 -60 40 -27 34 29
-5 22 2 -45 40 -76 44 -69 53 14 19 57 -24 44 -8 -37 45 -86 55 -133 99 -76
69 46 -24 144 -66 144 -63 0 2 -28 22 -62 45 -35 23 -88 65 -118 93 -30 28
-41 42 -25 31 45 -31 118 -66 110 -54 -3 6 0 11 7 11 7 1 -4 7 -24 14 -49 18
-108 56 -86 56 9 0 28 -4 42 -10 38 -14 32 -5 -21 31 -54 37 -46 47 18 24 24
-8 49 -17 54 -18 6 -1 13 -6 17 -12 5 -6 8 -5 8 2 0 15 -25 29 -94 53 -51 18
-51 19 -16 20 l35 1 -50 21 c-45 20 -47 23 -25 28 25 6 25 6 -7 23 -18 10 -44
22 -59 27 -21 8 -25 7 -23 -8 1 -9 -1 -33 -5 -52 -4 -19 -8 -46 -9 -60 0 -14
-5 -28 -10 -31 -5 -4 -3 -28 6 -58 13 -44 13 -50 1 -40 -12 10 -13 8 -5 -15 6
-14 18 -41 26 -59 14 -28 14 -30 0 -13 -8 11 -15 24 -15 30 0 5 -2 7 -5 4 -8
-7 47 -122 95 -197 22 -36 38 -66 35 -69 -2 -2 -26 12 -53 32 -74 54 -102 123
-128 311 l-13 100 5 -94 c10 -160 51 -276 113 -318 111 -75 114 -76 108 -52
-5 20 -3 19 25 -7 29 -28 30 -28 23 -5 l-7 23 31 -23 c17 -12 31 -24 31 -26 0
-1 -45 -46 -100 -100 -86 -84 -101 -95 -106 -78 -3 11 -24 50 -45 86 -46 76
-48 87 -14 65 36 -24 42 -19 9 7 -16 12 -33 21 -39 19 -5 -2 -5 2 2 8 8 9 8
20 -3 46 -20 48 -18 49 17 9 18 -20 34 -33 37 -31 2 3 -9 21 -26 40 -16 19
-40 61 -53 93 -20 52 -23 75 -23 223 -1 198 12 267 58 318 27 28 39 35 72 35
81 0 210 -91 413 -292 108 -106 142 -163 149 -248 5 -60 22 -62 22 -3 0 42
-28 115 -62 163 -21 29 -21 30 -2 23 50 -21 93 -28 141 -24 29 3 54 1 55 -3 2
-4 31 -4 65 0 38 4 60 4 56 -2 -3 -5 -2 -8 3 -5 37 17 83 37 104 43 24 7 24 6
-7 -27 -40 -41 -44 -57 -5 -21 35 33 95 63 125 63 13 0 36 13 53 31 16 17 46
45 67 61 l39 31 -37 -58 c-76 -118 -114 -237 -96 -302 7 -24 9 -18 15 36 14
125 86 252 220 389 144 148 243 195 296 142z m-210 -706 c0 -8 -5 -12 -10 -9
-6 4 -8 11 -5 16 9 14 15 11 15 -7z m-181 -430 c18 -13 21 -22 16 -43 -10 -41
-34 -61 -73 -61 -57 0 -94 50 -59 78 10 9 16 4 25 -22 17 -46 38 -52 56 -18
12 23 12 30 0 46 -24 34 -3 46 35 20z m-755 -29 c-4 -16 0 -35 11 -52 l18 -27
19 24 c14 17 18 33 14 52 -3 15 -3 28 1 28 16 0 43 -35 43 -55 0 -29 -19 -45
-62 -51 -47 -8 -88 25 -88 72 0 30 3 34 25 34 22 0 25 -3 19 -25z m933 -481
c-3 -3 -12 -4 -19 -1 -8 3 -5 6 6 6 11 1 17 -2 13 -5z m-97 -24 c-8 -5 -19
-10 -25 -10 -5 0 -3 5 5 10 8 5 20 10 25 10 6 0 3 -5 -5 -10z m-323 -125 c4
-13 -78 -7 -92 7 -6 6 8 8 39 6 27 -2 51 -8 53 -13z m18 -194 c-3 -5 -28 -17
-56 -26 -57 -19 -121 -15 -167 9 -25 14 -22 15 53 10 63 -4 138 2 173 15 2 1
1 -3 -3 -8z m644 -660 c32 -46 32 -48 3 -44 -25 4 -24 2 9 -16 19 -11 53 -39
75 -63 96 -104 139 -226 138 -396 0 -97 1 -110 12 -90 12 22 13 21 9 -12 -2
-19 -6 -73 -9 -120 -6 -101 -44 -216 -101 -306 -48 -75 -163 -194 -187 -194
-21 0 -23 11 -7 27 9 9 7 10 -9 6 -14 -3 -24 0 -28 10 -3 10 -14 14 -30 11
-13 -2 -24 0 -24 6 0 5 5 10 10 10 14 0 12 27 -2 33 -7 2 -22 -3 -33 -12 -11
-9 5 11 34 44 110 122 158 217 231 461 43 143 50 178 49 248 0 44 -5 90 -10
101 -6 13 -7 2 -3 -35 8 -81 -18 -213 -76 -385 -51 -151 -73 -193 -130 -259
-31 -34 -54 -38 -72 -12 -4 7 -19 -1 -39 -19 -31 -30 -31 -30 -24 -5 16 50 35
125 34 135 0 6 -14 -17 -31 -50 -17 -33 -33 -54 -35 -47 -5 14 12 93 34 159
10 32 11 48 3 64 -16 29 -20 59 -9 59 6 0 7 5 3 11 -4 8 -12 2 -21 -15 -8 -14
-11 -32 -7 -38 4 -7 3 -8 -4 -4 -20 12 -12 47 42 191 6 14 5 16 -2 6 -20 -27
-22 9 -5 76 13 52 26 78 58 113 22 25 49 59 59 75 11 18 -2 8 -31 -24 l-50
-55 4 60 c1 32 4 95 7 139 3 67 11 98 50 190 25 61 46 117 46 125 1 8 12 -18
26 -59 14 -41 33 -86 43 -100z m-109 98 c0 -5 -4 -8 -9 -5 -5 3 -9 -4 -9 -17
0 -12 -12 -51 -27 -85 -17 -41 -30 -97 -36 -155 -17 -159 -46 -297 -124 -589
-62 -231 -77 -301 -82 -383 -7 -123 7 -193 47 -243 33 -42 54 -123 42 -166 -4
-16 -19 -36 -32 -45 l-24 -16 18 27 c10 15 16 33 13 40 -4 9 -6 7 -6 -4 -1
-15 -54 -68 -69 -68 -4 0 -7 43 -7 95 0 90 -1 96 -28 122 l-28 28 16 -38 c21
-50 17 -138 -7 -177 -19 -32 -52 -40 -62 -14 -3 9 -11 12 -18 8 -9 -5 -9 -3 1
9 12 15 11 17 -5 17 -14 0 -15 3 -6 8 7 5 10 16 6 25 -3 9 -10 14 -15 11 -5
-3 -7 1 -4 8 3 7 1 27 -4 43 l-8 30 -8 -38 c-4 -21 -5 -60 -3 -88 4 -42 3 -49
-13 -49 -38 0 -70 21 -84 55 -17 40 -20 121 -5 130 6 4 7 12 4 18 -4 7 -4 9 1
5 4 -4 20 12 36 37 35 56 61 69 129 68 46 -1 51 1 30 9 -14 5 -46 7 -72 4 -53
-6 -53 -7 -11 71 30 56 13 56 -23 -1 -16 -25 -32 -42 -36 -40 -4 3 -5 -2 -2
-10 4 -11 -1 -14 -16 -13 -25 2 -25 -1 1 267 6 63 14 180 18 260 4 80 8 117 9
83 2 -52 5 -61 18 -56 8 3 20 17 26 32 17 44 85 284 93 326 l7 40 -21 -19
c-40 -36 -21 4 24 53 25 26 45 56 45 66 0 14 -3 15 -15 5 -8 -6 -19 -9 -25 -5
-5 3 -10 2 -10 -2 0 -5 -15 -14 -32 -21 -27 -10 -20 0 42 55 41 37 106 99 143
137 38 39 63 60 56 46 l-12 -25 25 23 c13 12 29 22 36 22 6 0 30 22 54 50 43
49 58 60 58 39z m-239 -127 c-5 -9 -19 -26 -32 -37 l-22 -20 11 22 c12 22 40
53 48 53 3 0 0 -8 -5 -18z m-1598 -1038 c-7 -20 -11 -18 -33 19 -28 46 -25 55
9 23 16 -16 27 -35 24 -42z m1845 -183 c50 -26 78 -58 91 -105 13 -48 5 -90
-22 -113 -19 -18 -20 -17 -8 4 14 28 14 62 -3 91 -11 22 -12 19 -12 -27 1 -41
-4 -55 -23 -73 -21 -20 -22 -21 -13 -3 5 11 13 41 16 67 6 37 3 55 -13 87 -12
22 -26 43 -32 46 -6 4 -4 -7 5 -23 19 -37 21 -132 4 -153 -7 -8 -21 -21 -30
-28 -16 -12 -16 -10 -8 20 11 36 0 98 -27 154 -17 36 -17 37 7 56 30 23 24 23
68 0z m-1498 -107 c-13 -33 -13 -110 0 -134 8 -16 8 -18 -5 -14 -8 3 -12 10
-9 15 3 5 0 9 -6 9 -6 0 -8 5 -5 10 3 6 1 10 -5 10 -7 0 -10 7 -6 15 3 8 0 15
-5 15 -7 0 -9 11 -7 25 3 13 1 22 -3 19 -5 -2 -11 -20 -15 -39 -9 -48 -20 -52
-22 -7 -4 71 5 88 45 90 21 2 39 5 42 7 10 10 10 4 1 -21z m84 -88 c1 -68 0
-76 -17 -76 -31 0 -61 102 -39 136 6 11 43 23 50 18 2 -2 5 -37 6 -78z m-147
-41 c0 -8 -4 -12 -9 -9 -5 3 -6 10 -3 15 9 13 12 11 12 -6z"/>
<path d="M3325 4603 c-47 -25 -136 -96 -185 -149 -35 -37 -20 -28 65 41 61 49
116 93 123 98 7 6 30 14 50 18 34 6 35 7 7 7 -16 1 -43 -6 -60 -15z"/>
<path d="M1908 4579 c34 -22 45 -47 15 -34 -10 4 -31 10 -48 12 -19 2 -11 -3
23 -15 51 -19 61 -25 132 -87 19 -16 6 2 -30 40 -72 79 -100 105 -115 105 -5
0 5 -10 23 -21z"/>
<path d="M1760 4559 c-7 -11 -10 -23 -7 -25 2 -2 9 7 15 21 14 30 7 33 -8 4z"/>
<path d="M1736 4498 c-3 -13 -5 -32 -5 -43 1 -11 5 -2 10 19 10 42 6 62 -5 24z"/>
<path d="M2010 4516 c0 -2 8 -10 18 -17 15 -13 16 -12 3 4 -13 16 -21 21 -21
13z"/>
<path d="M3462 4500 c0 -14 2 -19 5 -12 2 6 2 18 0 25 -3 6 -5 1 -5 -13z"/>
<path d="M2060 4478 c0 -5 15 -25 33 -45 19 -21 50 -62 69 -90 19 -29 37 -51
40 -48 3 3 16 -18 29 -47 16 -37 24 -77 27 -135 2 -48 8 -83 14 -83 7 0 9 29
6 80 -6 105 -50 196 -147 300 -39 41 -70 72 -71 68z"/>
<path d="M3245 4420 c-3 -6 1 -7 9 -4 18 7 21 14 7 14 -6 0 -13 -4 -16 -10z"/>
<path d="M3198 4394 c-38 -20 -36 -28 2 -9 17 9 30 18 30 20 0 7 -1 6 -32 -11z"/>
<path d="M2065 4360 c10 -11 20 -20 23 -20 3 0 -3 9 -13 20 -10 11 -20 20 -23
20 -3 0 3 -9 13 -20z"/>
<path d="M3164 4289 c-19 -22 -19 -22 4 -8 12 8 22 17 22 21 0 12 -6 9 -26
-13z"/>
<path d="M3175 4238 c-45 -32 -125 -110 -136 -133 -9 -18 -9 -19 4 -3 8 10 18
14 22 10 5 -4 5 -2 2 4 -7 11 42 61 113 116 42 32 38 36 -5 6z"/>
<path d="M2706 4103 c37 -64 54 -89 54 -79 0 11 -70 126 -76 126 -3 0 7 -21
22 -47z"/>
<path d="M2552 4135 c-1 -5 5 -37 13 -70 8 -37 13 -49 13 -30 0 27 -25 124
-26 100z"/>
<path d="M2648 3880 c4 -235 9 -264 9 -55 0 94 -2 184 -6 200 -3 17 -5 -49 -3
-145z"/>
<path d="M2582 3980 c0 -14 2 -19 5 -12 2 6 2 18 0 25 -3 6 -5 1 -5 -13z"/>
<path d="M2523 3890 c17 -36 33 -62 35 -58 4 8 -30 75 -52 103 -9 11 -1 -9 17
-45z"/>
<path d="M2462 3750 c28 -38 56 -91 70 -130 6 -20 7 -19 3 9 -5 36 -54 120
-83 143 -9 7 -4 -3 10 -22z"/>
<path d="M2940 3749 c-31 -32 -70 -98 -70 -121 0 -6 12 11 26 39 14 29 39 66
56 82 18 17 29 31 26 31 -4 0 -20 -14 -38 -31z"/>
<path d="M2800 3717 c-18 -77 -9 -292 13 -332 20 -37 20 -36 2 50 -17 82 -19
233 -4 288 6 22 8 41 6 44 -3 2 -11 -20 -17 -50z"/>
<path d="M2368 3705 c46 -41 82 -90 82 -110 0 -4 -21 11 -46 34 -47 41 -130
76 -161 68 -12 -3 -10 -5 7 -6 36 -2 139 -55 180 -92 24 -23 36 -45 41 -73 l6
-41 2 38 c0 21 -5 53 -13 71 -17 40 -76 108 -120 138 -17 11 -7 -1 22 -27z"/>
<path d="M2188 3703 c6 -2 18 -2 25 0 6 3 1 5 -13 5 -14 0 -19 -2 -12 -5z"/>
<path d="M3060 3703 c-8 -3 -27 -15 -42 -25 -29 -20 -38 -13 -15 12 10 12 9
12 -6 0 -32 -24 -76 -86 -82 -116 l-6 -29 14 30 c22 48 97 104 167 126 20 6
21 7 5 7 -11 0 -27 -2 -35 -5z"/>
<path d="M1894 3674 c-18 -14 -18 -15 4 -4 12 6 22 13 22 15 0 8 -5 6 -26 -11z"/>
<path d="M1908 3492 c-37 -25 -66 -48 -63 -50 3 -4 74 41 124 80 48 36 4 15
-61 -30z"/>
<path d="M2579 3464 c-10 -34 -14 -66 -10 -87 6 -27 9 -20 20 51 7 46 11 85 9
87 -2 2 -11 -21 -19 -51z"/>
<path d="M2106 3360 c15 -58 83 -117 122 -107 12 3 11 5 -5 6 -29 1 -79 45
-104 90 -14 25 -18 28 -13 11z"/>
<path d="M3165 3360 c-9 -10 -36 -23 -59 -29 -39 -8 -40 -9 -9 -10 23 -1 42 8
65 29 18 16 30 30 27 30 -3 0 -14 -9 -24 -20z"/>
<path d="M2268 3333 c6 -2 18 -2 25 0 6 3 1 5 -13 5 -14 0 -19 -2 -12 -5z"/>
<path d="M3213 3301 c-16 -42 -67 -71 -128 -71 -27 0 -56 -4 -64 -9 -8 -5 13
-7 55 -4 42 3 78 12 93 22 32 23 64 66 60 80 -3 7 -9 -2 -16 -18z"/>
<path d="M1868 3264 c-39 -21 -35 -28 5 -8 37 19 44 24 31 24 -5 -1 -21 -8
-36 -16z"/>
<path d="M2822 3240 c0 -19 2 -27 5 -17 2 9 2 25 0 35 -3 9 -5 1 -5 -18z"/>
<path d="M2904 3243 c4 -9 14 -39 23 -67 9 -28 18 -45 20 -39 4 12 -35 123
-44 123 -3 0 -2 -8 1 -17z"/>
<path d="M2505 3220 c-9 -16 -13 -30 -11 -30 3 0 12 14 21 30 9 17 13 30 11
30 -3 0 -12 -13 -21 -30z"/>
<path d="M2589 3245 c-2 -5 0 -39 7 -75 7 -36 12 -51 12 -35 1 44 -12 122 -19
110z"/>
<path d="M1898 3222 c-10 -4 16 -7 60 -8 131 -1 255 -64 405 -204 50 -47 82
-71 70 -55 -31 44 -111 117 -176 160 -31 21 -57 41 -57 45 0 5 22 14 50 21 27
7 48 15 45 17 -3 3 -31 -3 -63 -12 l-58 -18 -64 27 c-66 28 -177 42 -212 27z"/>
<path d="M1951 3136 c3 -3 32 -11 65 -17 70 -12 200 -69 183 -80 -7 -4 0 -9
19 -14 17 -3 36 -13 42 -21 7 -7 16 -11 21 -8 5 3 9 0 9 -5 0 -6 5 -11 10 -11
6 0 28 -11 50 -25 29 -18 38 -29 33 -42 -3 -10 -3 -15 2 -11 4 4 19 -2 33 -12
14 -11 28 -17 31 -14 3 3 -4 13 -16 21 -13 9 -23 21 -23 27 0 6 -12 18 -28 27
-15 9 -74 45 -132 81 -58 35 -130 71 -160 80 -62 19 -148 34 -139 24z"/>
<path d="M1782 3101 c-10 -6 -3 -10 23 -15 32 -6 35 -9 23 -23 -12 -15 -5 -16
81 -10 52 4 117 7 145 8 50 1 50 1 16 10 -29 7 -253 39 -270 39 -3 0 -11 -4
-18 -9z"/>
<path d="M2612 3075 c0 -16 2 -22 5 -12 2 9 2 23 0 30 -3 6 -5 -1 -5 -18z"/>
<path d="M2822 3050 c0 -19 2 -27 5 -17 2 9 2 25 0 35 -3 9 -5 1 -5 -18z"/>
<path d="M2118 3053 c7 -3 16 -2 19 1 4 3 -2 6 -13 5 -11 0 -14 -3 -6 -6z"/>
<path d="M2972 3020 c0 -19 2 -27 5 -17 2 9 2 25 0 35 -3 9 -5 1 -5 -18z"/>
<path d="M3094 3014 c-18 -14 -18 -14 6 -3 31 14 36 19 24 19 -6 0 -19 -7 -30
-16z"/>
<path d="M2621 2994 c0 -11 3 -14 6 -6 3 7 2 16 -1 19 -3 4 -6 -2 -5 -13z"/>
<path d="M3241 2956 c2 -2 18 -6 34 -10 22 -5 26 -4 15 4 -14 9 -59 15 -49 6z"/>
<path d="M2344 2935 c11 -8 25 -15 30 -15 6 0 2 7 -8 15 -11 8 -25 15 -30 15
-6 0 -2 -7 8 -15z"/>
<path d="M3235 2860 c10 -11 20 -20 23 -20 3 0 -3 9 -13 20 -10 11 -20 20 -23
20 -3 0 3 -9 13 -20z"/>
<path d="M2034 2834 c-18 -14 -18 -14 6 -3 31 14 36 19 24 19 -6 0 -19 -7 -30
-16z"/>
<path d="M1863 2798 c-42 -46 -60 -107 -22 -72 11 10 26 28 32 39 9 19 9 19
-8 5 -17 -13 -18 -13 -10 0 4 8 15 23 23 33 22 25 9 21 -15 -5z"/>
<path d="M3252 2753 c37 -77 52 -159 45 -262 -7 -97 -21 -124 -30 -57 -8 56
-48 157 -78 194 -25 31 -25 31 20 -62 30 -60 34 -78 35 -152 0 -81 -2 -88 -46
-174 -25 -50 -42 -90 -38 -90 9 0 54 65 71 102 6 15 15 25 20 23 4 -3 5 5 2
17 -3 17 -2 19 5 9 7 -10 15 1 32 45 30 77 38 255 16 327 -13 44 -13 47 2 35
25 -20 -21 42 -56 75 l-29 28 29 -58z"/>
<path d="M1712 2645 c0 -16 2 -22 5 -12 2 9 2 23 0 30 -3 6 -5 -1 -5 -18z"/>
<path d="M3001 2620 c14 -31 19 -36 19 -24 0 6 -7 19 -16 30 -14 18 -14 18 -3
-6z"/>
<path d="M3095 2615 c3 -16 8 -84 11 -150 7 -123 5 -133 -41 -250 -6 -18 -5
-17 9 2 9 12 24 42 32 65 20 56 20 232 -1 308 -8 30 -12 42 -10 25z"/>
<path d="M3021 2575 c1 -19 18 -51 18 -35 0 8 -4 22 -9 30 -5 8 -9 11 -9 5z"/>
<path d="M2780 2513 c-15 -70 -53 -179 -87 -248 -14 -27 -20 -45 -14 -39 34
32 134 324 117 341 -2 3 -10 -22 -16 -54z"/>
<path d="M1785 2511 c-3 -5 -2 -12 3 -15 5 -3 9 1 9 9 0 17 -3 19 -12 6z"/>
<path d="M3041 2504 c0 -11 3 -14 6 -6 3 7 2 16 -1 19 -3 4 -6 -2 -5 -13z"/>
<path d="M3051 2440 c-3 -45 -3 -45 -11 -12 -13 56 -17 45 -12 -38 5 -84 -9
-178 -34 -233 l-15 -32 5 40 c3 22 8 74 10 115 l5 75 -9 -60 c-12 -71 -18 -89
-19 -55 -1 14 -10 43 -21 65 -11 22 -17 31 -14 20 4 -11 9 -55 12 -97 5 -82
-12 -151 -50 -199 -18 -24 -18 -23 -3 20 9 27 14 76 14 130 l-2 86 -7 -80
c-11 -122 -44 -221 -85 -255 -14 -12 -15 -10 -5 14 15 41 11 66 -5 29 -19 -45
-84 -130 -140 -183 l-47 -45 16 39 c9 21 16 43 16 49 0 14 -39 -38 -60 -80
l-17 -36 -56 74 c-59 79 -171 273 -186 324 -5 16 -13 48 -17 70 l-7 40 -9 -60
c-5 -33 -6 -87 -3 -120 l6 -60 -32 50 c-51 79 -72 150 -73 237 -1 53 -3 70 -9
55 -13 -36 -10 -159 6 -203 9 -23 27 -60 41 -82 28 -45 116 -147 116 -135 0 4
17 -15 38 -43 20 -29 70 -88 110 -133 39 -45 72 -86 72 -91 0 -21 16 -9 35 27
11 20 60 70 109 110 97 81 183 172 228 242 l28 45 0 -33 0 -33 42 34 c23 18
47 33 52 33 19 0 75 86 91 137 8 29 14 77 14 107 l-1 56 -9 -50 c-11 -66 -34
-117 -85 -190 -44 -63 -102 -122 -92 -94 54 149 84 314 76 409 l-5 45 -2 -45z
m49 -333 c0 -2 -10 -12 -22 -23 l-23 -19 19 23 c18 21 26 27 26 19z"/>
<path d="M2982 2390 c0 -14 2 -19 5 -12 2 6 2 18 0 25 -3 6 -5 1 -5 -13z"/>
<path d="M2601 2362 c-6 -11 -18 -46 -26 -78 -13 -52 -13 -60 0 -73 13 -14 15
-11 15 20 0 19 6 59 14 89 15 59 14 74 -3 42z"/>
<path d="M2800 2284 c0 -5 -19 -34 -41 -64 -29 -38 -33 -47 -15 -30 33 30 71
89 62 97 -3 4 -6 2 -6 -3z"/>
<path d="M2363 2129 c2 -44 9 -75 21 -94 27 -41 39 -18 41 77 1 53 -1 72 -5
53 -4 -16 -8 -57 -9 -90 -2 -60 -2 -60 -17 -32 -8 16 -19 56 -24 90 l-9 62 2
-66z"/>
<path d="M3312 2135 c-17 -37 -14 -45 4 -12 9 16 14 31 11 33 -2 2 -9 -7 -15
-21z"/>
<path d="M1885 2125 c12 -54 46 -122 75 -150 22 -22 28 -23 27 -9 -1 9 -12 28
-25 41 -12 12 -37 51 -53 85 -18 36 -28 50 -24 33z"/>
<path d="M2436 2000 c7 -40 58 -148 80 -170 8 -8 3 7 -12 35 -16 27 -38 76
-51 110 -16 40 -21 49 -17 25z"/>
<path d="M2552 1930 c0 -14 2 -19 5 -12 2 6 2 18 0 25 -3 6 -5 1 -5 -13z"/>
<path d="M2843 1858 c-15 -18 -35 -58 -29 -58 2 0 13 16 25 35 20 35 22 46 4
23z"/>
<path d="M2040 1816 c41 -43 100 -93 100 -84 0 2 -33 33 -72 68 -61 52 -65 55
-28 16z"/>
<path d="M2729 1743 c-20 -31 -24 -53 -25 -133 l-2 -95 8 97 c6 72 13 106 30
132 12 20 19 36 17 36 -3 0 -16 -17 -28 -37z"/>
<path d="M2450 1678 c0 -22 68 -186 70 -168 0 3 -14 41 -31 85 -28 73 -39 97
-39 83z"/>
<path d="M2572 1600 c0 -14 2 -19 5 -12 2 6 2 18 0 25 -3 6 -5 1 -5 -13z"/>
<path d="M2672 1425 c0 -16 2 -22 5 -12 2 9 2 23 0 30 -3 6 -5 -1 -5 -18z"/>
<path d="M2221 1404 c0 -11 3 -14 6 -6 3 7 2 16 -1 19 -3 4 -6 -2 -5 -13z"/>
<path d="M2215 685 c-23 -11 -24 -13 -5 -7 14 4 57 7 97 7 39 0 66 3 60 7 -20
13 -120 8 -152 -7z"/>
<path d="M2158 623 c-16 -19 -41 -84 -34 -90 2 -3 9 12 16 31 6 20 15 36 20
36 4 0 10 9 13 20 6 24 4 25 -15 3z"/>
<path d="M3427 1408 c-29 -38 -111 -188 -104 -188 3 0 23 28 44 63 88 140 117
201 60 125z"/>
<path d="M3293 2003 c-57 -81 -119 -149 -176 -194 -27 -22 -45 -39 -40 -39 31
1 196 175 247 261 28 47 13 33 -31 -28z"/>
<path d="M3012 1550 c-1 -41 -4 -100 -7 -130 -4 -48 -3 -46 10 20 8 41 16 88
19 103 3 16 2 26 -4 22 -5 -3 -11 9 -13 27 -2 18 -5 -1 -5 -42z"/>
<path d="M3021 706 c10 -9 69 -36 69 -32 0 6 -55 36 -66 36 -4 0 -5 -2 -3 -4z"/>
<path d="M1718 1932 c-49 -32 -98 -111 -98 -157 0 -14 -6 -38 -14 -53 -18 -35
-47 -144 -36 -137 4 3 13 28 20 55 7 28 22 65 34 83 40 58 41 61 23 54 -14 -5
-15 -2 -7 19 19 48 32 69 73 112 45 46 46 51 5 24z"/>
<path d="M1776 1390 c12 -24 100 -133 125 -155 17 -15 15 -9 -9 25 -37 51
-127 153 -116 130z"/>
</g>
</svg>