<?xml version="1.0" standalone="no"?>
<!DOCTYPE svg PUBLIC "-//W3C//DTD SVG 20010904//EN"
 "http://www.w3.org/TR/2001/REC-SVG-20010904/DTD/svg10.dtd">
<svg version="1.0" xmlns="http://www.w3.org/2000/svg"
 width="512.000000pt" height="512.000000pt" viewBox="0 0 512.000000 512.000000"
 preserveAspectRatio="xMidYMid meet">
<metadata>
Created by potrace 1.16, written by Peter Selinger 2001-2019
</metadata>
<g transform="translate(0.000000,512.000000) scale(0.100000,-0.100000)"
fill="#000000" stroke="none">
<path d="M1600 4723 c-54 -55 -79 -114 -110 -260 -28 -131 -37 -409 -18 -586
8 -71 10 -130 7 -133 -4 -2 -10 6 -12 18 -3 14 -5 8 -6 -16 l-1 -38 -20 23
-20 24 10 -28 c5 -16 10 -66 10 -112 0 -55 7 -105 20 -147 11 -34 20 -75 20
-89 0 -38 -59 -88 -129 -110 -25 -7 -24 -7 7 -8 46 -1 89 19 147 71 90 80 173
127 344 192 119 46 218 98 269 142 59 50 180 214 202 273 27 70 25 138 -5 214
-14 35 -18 53 -9 42 8 -11 19 -20 25 -20 17 0 108 -95 136 -143 35 -59 38
-147 6 -210 -26 -54 -11 -44 24 15 52 90 26 188 -78 291 -52 51 -53 53 -24 46
38 -8 75 -31 76 -47 0 -6 3 -4 7 5 7 16 12 15 62 -8 30 -14 64 -33 75 -42 19
-17 19 -17 2 11 -21 32 -10 34 44 6 34 -17 46 -18 71 -10 40 14 41 14 34 -4
-4 -13 -2 -13 14 -5 10 5 22 15 25 20 11 18 35 11 35 -10 0 -19 2 -20 30 -5
16 8 53 15 82 15 29 0 83 11 120 23 l66 23 -26 -32 c-15 -17 -30 -29 -34 -27
-13 7 -109 -89 -129 -129 -24 -47 -33 -113 -21 -153 9 -30 9 -30 17 15 13 78
36 133 82 198 25 35 47 61 50 58 3 -3 1 -11 -5 -19 -37 -44 -30 -143 17 -247
l20 -45 -6 65 c-3 36 -3 63 0 60 4 -3 26 -53 51 -110 39 -93 49 -109 90 -137
l46 -32 56 19 c30 11 83 33 117 51 l62 31 -25 -27 c-39 -42 -107 -77 -151 -79
-21 0 -39 -2 -39 -3 0 -2 25 -17 55 -34 30 -17 55 -32 55 -34 0 -2 -17 1 -37
7 -72 20 -223 -14 -283 -63 -21 -17 -16 -16 27 6 112 54 232 63 310 22 47 -25
49 -37 6 -31 -35 5 -33 3 20 -20 72 -30 117 -59 184 -120 30 -27 65 -49 85
-52 l33 -7 -39 28 c-22 15 -77 61 -122 102 l-82 75 23 67 c32 95 50 126 118
205 58 67 117 176 131 241 5 23 -1 17 -24 -24 -37 -67 -56 -89 -95 -108 -26
-13 -24 -9 18 34 46 48 64 79 30 52 -10 -8 -5 3 10 24 25 33 77 144 77 164 0
4 -11 -9 -25 -27 -26 -35 -74 -79 -87 -80 -4 0 9 17 28 38 34 37 65 106 78
172 6 26 5 31 -4 20 -8 -11 -9 -1 -4 40 7 52 6 54 -10 37 -10 -9 -29 -17 -44
-17 -37 -1 -100 -31 -142 -70 -32 -29 -32 -30 -5 -12 17 11 50 29 75 42 l45
22 -45 -47 c-28 -30 -37 -45 -25 -40 51 19 56 14 10 -12 -71 -42 -121 -73
-115 -73 3 0 27 7 54 15 27 8 51 14 52 12 2 -2 -25 -19 -59 -39 -96 -56 -112
-71 -49 -48 29 11 65 20 80 20 21 0 8 -11 -63 -50 -49 -27 -105 -52 -123 -56
-18 -4 -31 -9 -28 -11 3 -3 28 0 56 7 28 7 54 10 56 7 3 -3 -24 -24 -60 -47
-36 -23 -66 -44 -66 -47 0 -2 48 21 108 52 59 31 94 45 77 32 -69 -56 -79 -66
-67 -67 7 0 28 7 47 14 19 8 35 14 35 12 0 -5 -127 -103 -162 -125 -21 -12
-38 -24 -38 -26 0 -5 73 21 102 36 l23 12 -19 -22 c-26 -28 -75 -59 -145 -88
-44 -19 -49 -23 -21 -18 19 4 60 18 90 31 30 13 46 17 36 9 -36 -28 -127 -55
-189 -58 l-62 -2 3 35 c8 95 88 273 193 430 87 131 290 336 341 345 54 10 78
-2 99 -50 57 -129 47 -392 -25 -675 -14 -52 -23 -96 -22 -98 2 -1 13 21 24 50
l21 53 -5 -45 c-6 -42 -33 -168 -55 -253 -5 -20 -24 -54 -42 -74 -27 -30 -28
-34 -9 -24 13 7 46 48 75 92 l52 80 3 -43 c10 -122 -45 -260 -116 -295 -2 0
12 -23 31 -50 19 -26 56 -90 82 -142 44 -88 89 -150 102 -138 3 3 -6 21 -20
39 -13 18 -54 88 -90 156 l-67 122 31 48 c38 60 58 128 65 222 3 41 15 103 26
138 12 34 19 65 16 67 -2 3 -20 -12 -39 -32 -19 -21 -25 -31 -14 -23 11 8 23
20 27 25 13 18 9 -5 -7 -33 -8 -15 -25 -37 -38 -49 l-24 -22 13 67 c7 37 16
108 20 157 3 50 14 139 25 198 41 238 48 503 15 580 -24 56 -61 82 -115 81
-75 -1 -134 -41 -365 -246 -205 -182 -327 -248 -467 -253 -36 -1 -70 -5 -76
-8 -5 -4 -16 5 -23 18 -9 18 -17 22 -25 15 -7 -6 -36 -18 -66 -29 l-54 -18
-45 24 c-26 14 -55 22 -69 20 -13 -3 -55 8 -93 24 -39 16 -74 27 -78 24 -17
-10 -88 19 -121 51 -19 19 -39 31 -44 27 -4 -5 -5 -2 -1 5 4 7 1 15 -8 18 -8
3 -39 38 -69 77 -185 245 -371 397 -485 397 -40 0 -50 -5 -92 -47z m208 -110
c67 -39 190 -167 250 -258 97 -148 142 -296 142 -468 0 -66 -4 -99 -15 -113
-14 -19 -14 -18 -32 6 -9 13 -29 36 -43 50 -14 14 -18 17 -9 5 28 -34 59 -89
59 -105 0 -8 -25 10 -57 40 l-56 55 41 -50 c22 -27 39 -51 37 -53 -5 -5 -170
135 -215 183 -30 32 -31 36 -10 25 27 -15 28 -17 -29 60 l-24 32 43 -27 c23
-14 43 -25 45 -23 2 2 -14 29 -35 60 l-38 58 36 -16 c20 -8 52 -26 71 -40 20
-14 2 7 -39 47 l-75 73 58 -33 c31 -18 57 -30 57 -27 0 3 -20 30 -45 61 l-46
56 39 -20 c21 -11 62 -41 92 -68 53 -47 54 -47 25 -10 -15 21 -71 72 -123 113
-71 56 -88 73 -66 68 48 -11 96 -33 133 -61 l36 -26 -35 37 c-19 21 -64 59
-98 84 -51 38 -60 48 -43 50 11 2 41 -6 66 -17 25 -11 45 -18 45 -17 0 13
-144 97 -181 106 -25 7 -58 22 -72 36 -14 13 -28 24 -31 24 -2 0 0 -17 5 -37
11 -47 10 -64 -1 -38 -8 18 -9 18 -9 -5 -1 -36 27 -140 46 -170 9 -15 -3 -7
-31 20 l-46 44 24 -70 c23 -70 48 -125 70 -155 6 -8 -6 2 -27 24 -20 22 -40
51 -43 63 -4 13 -10 24 -14 24 -16 0 32 -158 75 -245 47 -94 26 -81 -25 15
-40 76 -37 54 12 -85 33 -95 42 -134 42 -190 1 -84 -12 -111 -86 -185 -29 -30
-42 -44 -28 -33 42 34 66 43 121 43 l53 0 -95 -48 c-52 -26 -113 -62 -136 -80
-22 -17 -45 -32 -50 -32 -11 0 -37 79 -30 87 3 2 16 -1 29 -7 19 -11 18 -7 -9
21 -17 19 -37 47 -42 62 -14 37 -15 138 -1 117 7 -11 10 -1 10 35 l0 50 21
-32 c12 -18 22 -33 24 -33 2 0 -1 17 -6 38 -5 20 -9 60 -9 87 l0 50 25 -50
c26 -52 26 -39 -1 55 -21 74 -30 297 -15 402 13 91 54 245 77 290 8 15 28 44
45 63 27 30 37 35 76 35 30 0 59 -9 91 -27z m1412 -439 c0 -3 -17 -27 -38 -53
-48 -58 -99 -133 -112 -163 -8 -22 -9 -22 -9 5 -1 42 46 127 97 175 41 39 62
51 62 36z m-1311 -329 c48 -64 96 -101 167 -130 l59 -25 -43 0 c-100 0 -216
113 -235 230 l-6 35 10 -31 c6 -17 28 -53 48 -79z"/>
<path d="M1849 4496 c68 -40 136 -102 177 -159 49 -68 60 -79 41 -41 -43 86
-166 198 -237 218 -15 5 -7 -3 19 -18z"/>
<path d="M1830 4459 c19 -12 57 -40 84 -63 38 -31 46 -35 33 -15 -26 39 -108
98 -137 99 -8 0 1 -10 20 -21z"/>
<path d="M1631 4234 c0 -11 3 -14 6 -6 3 7 2 16 -1 19 -3 4 -6 -2 -5 -13z"/>
<path d="M2010 3856 c0 -2 8 -10 18 -17 15 -13 16 -12 3 4 -13 16 -21 21 -21
13z"/>
<path d="M3745 4416 c-27 -18 -70 -52 -95 -75 -43 -40 -43 -40 23 9 38 27 81
57 98 65 16 9 29 20 29 25 0 13 3 14 -55 -24z"/>
<path d="M2336 4150 c3 -14 12 -50 20 -80 l14 -55 -5 47 c-2 26 -11 62 -20 80
-11 23 -13 25 -9 8z"/>
<path d="M2891 4013 c-13 -44 -14 -111 -3 -168 5 -31 8 -12 12 80 3 66 4 122
3 123 -1 2 -6 -13 -12 -35z"/>
<path d="M2451 3972 c-1 -58 -24 -109 -74 -161 -50 -54 -21 -36 46 28 43 41
47 49 46 91 -1 63 -17 101 -18 42z"/>
<path d="M2361 3984 c0 -11 3 -14 6 -6 3 7 2 16 -1 19 -3 4 -6 -2 -5 -13z"/>
<path d="M2858 3983 c-21 -24 -71 -124 -64 -130 2 -3 17 19 32 49 15 29 33 63
42 76 17 26 11 29 -10 5z"/>
<path d="M2581 3854 c0 -22 5 -83 13 -135 8 -52 13 -116 11 -144 l-4 -50 11
51 c8 41 6 77 -10 185 -11 74 -20 116 -21 93z"/>
<path d="M2710 3843 c-10 -36 -18 -93 -39 -303 -5 -52 -32 -187 -60 -300 -45
-185 -71 -358 -71 -476 0 -60 9 -11 25 136 11 105 34 228 70 380 39 165 55
254 60 335 4 61 13 143 21 184 15 81 12 105 -6 44z"/>
<path d="M2800 3733 c-35 -93 -46 -173 -33 -249 7 -37 17 -72 23 -78 7 -7 8
-1 3 24 -16 72 -8 231 14 295 28 77 22 84 -7 8z"/>
<path d="M2993 3600 c-22 -16 -53 -47 -69 -67 -21 -29 -11 -22 42 27 38 35 71
65 73 67 2 2 2 3 0 3 -3 0 -23 -13 -46 -30z"/>
<path d="M2157 3591 c28 -9 70 -30 92 -44 23 -15 41 -24 41 -20 0 21 -129 83
-169 83 -9 -1 7 -9 36 -19z"/>
<path d="M2474 3453 c43 -102 65 -185 75 -280 l8 -78 2 66 c1 82 -28 200 -74
297 -19 39 -36 72 -39 72 -3 0 10 -35 28 -77z"/>
<path d="M2343 3483 c20 -23 47 -59 61 -80 37 -57 86 -215 95 -307 8 -75 8
-77 10 -24 1 71 -20 176 -55 262 -18 46 -43 84 -86 128 -33 35 -44 44 -25 21z"/>
<path d="M1916 3441 c120 -14 197 -47 276 -119 46 -42 88 -118 88 -161 0 -26
-42 -157 -54 -169 -3 -2 -13 16 -24 40 -11 24 -34 57 -53 73 l-33 30 33 -39
c37 -44 61 -94 61 -128 0 -22 0 -22 -17 2 -24 37 -75 90 -98 102 -11 6 -1 -7
21 -28 39 -37 80 -101 71 -110 -2 -2 -26 6 -53 18 -41 19 -65 23 -144 22 -153
-2 -248 -25 -374 -89 -61 -31 -100 -53 -86 -50 14 4 62 24 106 46 91 44 165
57 204 37 23 -13 37 -31 89 -116 33 -55 70 -74 150 -77 36 -1 74 -5 84 -10 25
-11 47 -58 53 -113 6 -46 4 -49 -66 -142 -93 -121 -105 -151 -145 -335 l-7
-30 -28 55 c-49 96 -141 186 -210 205 -15 4 -6 -5 20 -20 49 -28 120 -93 120
-109 0 -5 -8 -2 -17 7 -30 26 -119 67 -148 67 -15 0 -48 15 -74 34 -126 93
-194 119 -301 119 -69 -1 -72 0 -35 9 22 5 74 8 114 5 l75 -4 -30 24 c-44 37
-98 62 -162 77 l-57 13 35 21 c19 12 46 22 59 22 33 0 21 10 -24 20 -48 11
-119 -10 -165 -49 l-35 -29 45 4 45 4 -35 -11 c-69 -21 -129 -85 -145 -154 -6
-25 -3 -22 17 14 13 25 41 58 61 75 32 26 48 31 105 34 48 3 78 -1 107 -14
l40 -17 -58 -13 c-31 -8 -72 -21 -90 -31 l-32 -17 105 -12 c125 -14 168 -25
252 -64 l63 -29 -70 -2 -70 -2 85 -7 c73 -6 130 -21 130 -35 0 -2 -15 1 -32 6
-50 14 -169 10 -203 -7 -16 -8 -21 -11 -10 -7 46 15 171 15 227 -2 97 -28 235
-135 278 -216 13 -24 13 -24 -21 4 -71 58 -208 107 -299 107 -129 0 -281 -75
-414 -202 -49 -49 -94 -88 -98 -88 -5 0 5 24 22 53 18 33 37 90 50 152 25 125
74 228 135 284 48 44 43 54 -10 21 -66 -41 -106 -121 -136 -273 -16 -82 -29
-117 -67 -182 -61 -104 -102 -186 -102 -205 0 -8 13 8 30 36 25 44 95 114 114
114 3 0 6 -31 6 -69 0 -81 35 -211 81 -304 39 -77 126 -209 174 -262 45 -50
38 -35 -42 83 -136 200 -211 409 -189 526 13 71 136 185 266 249 79 39 91 42
170 42 49 0 102 -6 125 -14 l40 -15 -82 -11 c-86 -13 -158 -42 -189 -77 -13
-14 -4 -11 24 10 54 38 168 66 231 57 45 -7 131 -64 176 -116 l20 -23 -25 15
c-16 10 -52 15 -100 16 l-75 1 60 -7 c103 -13 172 -61 88 -61 -46 0 -124 -27
-136 -47 -4 -6 15 1 40 14 60 30 138 32 153 4 16 -31 12 -41 -17 -42 -27 -1
-27 -1 -4 -8 27 -7 32 -15 56 -85 11 -29 34 -64 61 -90 23 -22 63 -61 88 -84
l46 -44 0 -71 c0 -92 8 -121 85 -302 35 -82 71 -179 81 -214 10 -36 20 -59 22
-53 6 18 -34 142 -85 267 -47 114 -93 276 -93 327 l0 30 28 -18 c51 -34 80
-44 139 -52 55 -7 59 -9 78 -47 11 -22 22 -62 26 -90 l6 -50 1 50 c1 31 -6 67
-18 94 -11 24 -19 45 -18 46 2 1 22 7 46 14 23 6 67 32 97 56 30 25 57 45 60
45 15 0 35 -75 35 -127 0 -64 -34 -148 -84 -213 -21 -26 -18 -24 12 8 80 85
109 196 78 293 -17 50 -17 53 1 62 18 10 61 53 116 115 26 29 35 32 83 32 45
0 59 -5 86 -29 32 -29 33 -31 33 -113 -1 -74 -4 -91 -36 -158 l-36 -75 4 46
c6 56 -24 133 -69 175 -30 29 -30 29 6 -24 64 -96 59 -186 -16 -293 -40 -58
-57 -76 -40 -41 5 9 12 33 15 52 5 32 5 33 -5 10 -6 -14 -21 -47 -33 -75 -12
-27 -66 -108 -120 -180 -53 -71 -108 -149 -122 -172 -14 -24 -27 -43 -30 -43
-7 0 75 150 160 295 78 131 117 217 116 255 0 19 -3 16 -13 -15 -16 -52 -45
-107 -118 -229 -93 -154 -133 -238 -212 -441 -47 -121 -56 -171 -13 -68 63
149 141 271 302 473 85 107 175 240 175 260 0 4 7 11 15 14 23 8 74 123 86
192 9 49 8 68 -6 104 -9 25 -17 50 -17 57 -1 7 -5 10 -10 7 -4 -3 -8 -1 -8 4
0 9 -56 27 -105 34 -16 3 -10 12 35 47 50 40 58 43 102 39 64 -7 121 -46 158
-111 38 -66 39 -127 6 -232 -28 -87 -18 -92 14 -7 22 57 43 195 29 186 -4 -2
-10 4 -14 15 -11 35 -65 100 -104 126 -21 15 -61 29 -87 33 l-48 7 29 19 c55
36 189 14 237 -40 9 -10 28 -39 42 -64 30 -53 35 -46 7 9 -32 62 -91 107 -156
121 -31 7 -66 10 -76 7 -29 -8 -12 11 39 44 55 35 129 39 207 12 48 -16 137
-92 178 -153 l18 -25 -12 25 c-27 57 -91 120 -154 151 -58 28 -71 31 -139 27
-41 -2 -69 0 -62 4 31 17 204 40 266 35 57 -5 60 -4 25 5 -43 10 -169 4 -223
-11 -52 -15 -27 6 31 26 69 23 233 24 295 0 24 -9 40 -12 37 -7 -12 19 -111
40 -194 41 l-86 0 70 25 c109 38 235 31 329 -18 33 -18 107 -91 123 -122 11
-21 19 -73 23 -166 5 -93 14 -153 27 -192 11 -32 19 -58 17 -58 -8 0 -62 104
-91 175 -35 86 -46 80 -13 -7 11 -29 20 -55 20 -58 0 -3 -37 33 -81 80 -84 88
-74 67 37 -75 82 -105 259 -290 240 -250 -8 17 -33 62 -55 100 -51 85 -68 144
-75 255 l-5 85 15 -51 c9 -28 27 -64 41 -80 17 -20 22 -23 17 -9 -4 11 -8 90
-9 175 -2 168 -16 231 -67 289 l-23 26 25 -20 c14 -10 46 -40 73 -64 26 -25
47 -41 47 -37 0 34 -107 178 -161 216 -46 33 -34 13 24 -41 l52 -48 -67 26
c-37 15 -65 30 -63 33 2 4 -24 8 -58 9 -61 2 -317 -38 -317 -50 0 -3 78 -10
174 -15 164 -8 176 -10 200 -33 29 -27 31 -25 16 13 -9 26 2 37 15 15 4 -6 14
-8 23 -4 9 3 13 3 10 -1 -4 -3 4 -21 17 -38 47 -62 74 -183 60 -273 l-7 -48
-25 63 c-36 90 -104 160 -195 203 -68 32 -80 34 -168 33 -89 -1 -105 -4 -252
-57 -165 -59 -202 -75 -258 -115 l-35 -24 30 27 c17 16 30 32 30 36 0 4 4 11
9 16 5 5 6 3 2 -4 -8 -15 10 -18 19 -3 3 5 1 10 -6 10 -7 0 -5 9 7 23 19 22
19 22 -1 7 -11 -9 -53 -44 -92 -79 -84 -72 -94 -61 -27 28 81 108 185 175 319
205 65 15 66 16 19 12 -129 -11 -241 -79 -357 -216 -44 -52 -40 -39 14 40 76
114 182 192 314 232 56 17 57 17 15 12 -129 -18 -252 -105 -360 -256 -18 -27
-34 -48 -35 -48 -2 0 4 30 12 68 18 85 19 194 3 252 -7 25 -13 59 -12 75 1 22
-1 25 -6 12 -6 -14 -12 -6 -25 36 -26 81 -22 114 21 177 48 71 69 81 157 73
88 -7 126 10 203 91 44 46 61 56 98 62 106 16 227 -34 345 -143 43 -40 82 -73
87 -73 13 0 -142 157 -186 188 -59 42 -122 61 -217 66 -47 3 -102 13 -133 25
-65 26 -146 27 -211 2 -57 -21 -60 -6 -6 23 19 11 33 21 31 23 -2 3 -16 -3
-31 -13 l-28 -18 16 31 c9 17 38 50 64 73 37 33 41 39 18 27 -64 -33 -114 -93
-188 -233 -29 -53 -60 -102 -69 -108 -22 -14 -50 12 -79 72 -40 82 -24 197 43
307 22 35 25 45 11 32 -28 -24 -71 -116 -84 -177 -18 -86 7 -175 65 -229 23
-22 24 -26 11 -45 -21 -29 -19 -68 9 -134 44 -105 96 -281 96 -324 0 -24 -7
-81 -15 -128 -8 -47 -15 -99 -15 -116 0 -19 -8 -38 -21 -50 -11 -10 -26 -28
-31 -39 -8 -14 -2 -12 21 9 21 21 31 25 31 15 0 -9 -18 -30 -41 -48 -22 -18
-38 -36 -35 -39 4 -3 22 10 42 29 l36 34 -7 -35 c-4 -19 -17 -43 -28 -53 -17
-13 -18 -16 -4 -11 35 13 14 -23 -38 -62 -19 -14 -19 -15 3 -4 22 11 23 10 12
-9 -43 -81 -131 -121 -266 -121 -120 0 -183 30 -93 44 66 11 117 42 150 94
105 165 19 272 -219 272 -139 0 -197 -45 -197 -150 1 -96 59 -173 157 -207 67
-24 65 -48 -4 -40 -153 19 -251 83 -283 187 -7 23 -7 24 11 10 14 -12 13 -8
-4 14 -12 16 -22 42 -22 59 l0 31 33 -30 32 -29 -32 35 c-18 20 -33 44 -33 55
0 16 4 15 32 -11 l32 -29 -32 38 c-29 34 -32 44 -28 80 3 23 8 69 11 102 8 73
31 169 52 210 8 16 47 72 85 122 99 132 118 169 118 227 0 46 3 53 59 110 106
111 132 204 93 332 -12 38 -28 78 -37 89 -10 13 -7 2 6 -30 15 -33 23 -79 27
-136 6 -109 -15 -162 -97 -243 l-57 -57 -18 63 c-32 115 -32 146 3 227 55 128
38 215 -60 306 -77 72 -161 107 -267 111 l-87 3 71 -8z m109 -598 c6 -27 28
-29 80 -7 47 19 58 9 22 -22 -61 -52 -167 -13 -167 61 0 29 4 34 28 37 22 2
27 -1 30 -22 1 -14 5 -35 7 -47z m90 61 c13 -14 14 -19 3 -25 -22 -14 -38 -10
-38 9 0 16 8 32 16 32 1 0 10 -7 19 -16z m1027 -25 c42 -23 -15 -113 -79 -125
-57 -11 -122 31 -107 70 11 29 33 25 54 -10 26 -41 44 -43 67 -8 13 21 14 30
4 45 -6 11 -9 24 -6 29 8 13 41 13 67 -1z m-1344 -609 c24 -11 58 -30 75 -42
18 -13 33 -22 35 -20 1 1 3 -1 3 -5 1 -5 12 -20 24 -35 23 -28 51 -95 42 -104
-2 -2 -16 13 -30 35 -22 33 -58 63 -212 175 l-20 15 20 0 c11 0 39 -8 63 -19z
m1164 -362 c-64 -62 -92 -77 -44 -23 28 30 93 85 102 85 3 0 -23 -28 -58 -62z
m-485 30 c36 -10 73 -51 73 -78 0 -17 -4 -17 -44 -5 -25 8 -77 17 -116 21
l-71 7 25 26 c14 15 26 32 26 38 0 13 51 8 107 -9z m1370 -50 c-3 -8 -6 -5 -6
6 -1 11 2 17 5 13 3 -3 4 -12 1 -19z m-1567 -118 c0 -15 -39 -21 -60 -10 -11
6 -20 12 -20 13 0 7 80 4 80 -3z m251 -27 c25 7 25 -10 -1 -18 -21 -7 -60 10
-60 26 0 6 8 6 21 -2 12 -6 30 -9 40 -6z m-235 -188 c76 -28 137 -31 234 -10
36 7 66 12 68 10 7 -6 -58 -46 -99 -60 -50 -18 -133 -19 -180 -3 -38 13 -119
67 -119 80 0 14 27 9 96 -17z"/>
<path d="M1808 3433 c6 -2 18 -2 25 0 6 3 1 5 -13 5 -14 0 -19 -2 -12 -5z"/>
<path d="M2827 3368 c-19 -24 -46 -68 -61 -98 -14 -30 -21 -47 -14 -36 68 100
117 176 114 176 -3 0 -20 -19 -39 -42z"/>
<path d="M1622 3349 c-73 -38 -161 -107 -301 -236 -60 -55 -125 -105 -155
-119 -43 -20 -47 -24 -24 -24 87 0 384 180 488 296 15 16 -2 7 -40 -22 -79
-61 -170 -123 -241 -164 l-54 -32 70 72 c89 91 211 189 283 229 75 40 52 40
-26 0z"/>
<path d="M3398 3343 c7 -3 16 -2 19 1 4 3 -2 6 -13 5 -11 0 -14 -3 -6 -6z"/>
<path d="M3490 3310 c36 -17 81 -43 100 -58 22 -16 29 -19 18 -6 -23 27 -117
82 -153 89 -17 4 -2 -7 35 -25z"/>
<path d="M2993 3291 c-134 -105 -179 -234 -129 -364 24 -63 32 -54 10 12 -23
72 -15 165 20 225 14 24 56 71 92 105 76 69 79 79 7 22z"/>
<path d="M2710 3253 c-36 -56 -66 -133 -86 -221 -22 -95 -11 -86 15 11 12 46
41 123 64 170 24 48 41 87 40 87 -2 0 -17 -21 -33 -47z"/>
<path d="M1842 3282 c-13 -4 25 -7 85 -7 126 0 188 -17 261 -72 l47 -36 -34
36 c-53 57 -119 80 -236 83 -55 2 -110 0 -123 -4z"/>
<path d="M3258 3253 c12 -2 32 -2 45 0 12 2 2 4 -23 4 -25 0 -35 -2 -22 -4z"/>
<path d="M3145 3236 c-48 -15 -121 -52 -130 -65 -3 -5 21 3 52 20 32 16 83 35
113 43 30 8 44 15 30 15 -14 0 -43 -6 -65 -13z"/>
<path d="M3525 3211 c-3 -5 -2 -12 3 -15 5 -3 9 1 9 9 0 17 -3 19 -12 6z"/>
<path d="M3623 3169 c82 -49 189 -147 222 -203 32 -55 86 -197 79 -208 -3 -4
6 -22 21 -39 32 -39 27 -46 -14 -21 -44 27 -74 70 -132 192 -60 126 -113 197
-193 258 l-61 46 87 -91 c76 -80 95 -107 144 -210 32 -65 77 -146 101 -181 50
-70 125 -236 147 -325 6 -27 6 -27 -33 12 -22 22 -65 60 -97 84 -52 41 -59 44
-86 35 l-30 -11 51 -18 c53 -18 137 -79 172 -123 11 -13 31 -44 45 -68 28 -48
28 -48 -7 90 -21 83 -83 243 -112 287 -16 26 -14 25 14 -7 31 -33 96 -75 104
-66 2 2 -14 29 -35 60 -21 31 -50 90 -65 130 -45 121 -70 170 -114 225 -46 58
-140 132 -213 169 -73 37 -70 28 5 -17z"/>
<path d="M2040 3096 c0 -2 7 -7 16 -10 8 -3 12 -2 9 4 -6 10 -25 14 -25 6z"/>
<path d="M1704 3061 c-85 -33 -143 -72 -209 -142 l-50 -52 67 56 c89 74 138
105 223 139 39 15 63 27 55 27 -8 0 -47 -12 -86 -28z"/>
<path d="M1385 3049 c-36 -10 -168 -115 -245 -193 -30 -31 -52 -56 -48 -56 3
0 46 34 94 76 49 42 120 96 159 121 101 67 105 71 40 52z"/>
<path d="M3235 3050 c27 -12 43 -12 25 0 -8 5 -22 9 -30 9 -10 0 -8 -3 5 -9z"/>
<path d="M3281 3037 c16 -13 99 -57 99 -53 0 7 -84 56 -95 56 -5 0 -6 -1 -4
-3z"/>
<path d="M3045 2970 c-13 -6 -5 -7 25 -3 25 3 47 7 49 9 9 8 -55 2 -74 -6z"/>
<path d="M1217 2841 c-41 -27 -95 -107 -112 -166 -29 -101 -28 -112 1 -55 38
73 97 130 175 168 35 17 58 31 52 31 -24 2 -99 -33 -148 -67 -49 -35 -48 -27
4 31 37 41 73 57 128 58 92 2 103 17 13 18 -67 1 -91 -3 -113 -18z"/>
<path d="M1761 2788 c70 -126 123 -179 179 -177 25 1 24 1 -3 9 -51 15 -95 59
-147 145 -63 105 -82 120 -29 23z"/>
<path d="M2412 2810 c0 -19 2 -27 5 -17 2 9 2 25 0 35 -3 9 -5 1 -5 -18z"/>
<path d="M3889 2792 c6 -12 16 -24 22 -28 8 -4 8 -1 0 14 -6 12 -16 24 -22 28
-8 4 -8 1 0 -14z"/>
<path d="M3320 2725 c-90 -91 -121 -108 -209 -115 l-76 -6 58 -8 c51 -7 63 -5
111 18 35 17 74 49 115 96 35 39 61 70 59 70 -2 0 -28 -25 -58 -55z"/>
<path d="M2692 2740 c0 -19 2 -27 5 -17 2 9 2 25 0 35 -3 9 -5 1 -5 -18z"/>
<path d="M1555 2734 c-55 -46 -85 -57 -139 -51 -28 3 -69 2 -91 -3 -32 -6 -21
-8 58 -9 108 -1 133 7 181 58 36 37 32 39 -9 5z"/>
<path d="M2402 2720 c0 -14 2 -19 5 -12 2 6 2 18 0 25 -3 6 -5 1 -5 -13z"/>
<path d="M2531 2714 c0 -11 3 -14 6 -6 3 7 2 16 -1 19 -3 4 -6 -2 -5 -13z"/>
<path d="M1410 2710 c8 -5 22 -9 30 -9 10 0 8 3 -5 9 -27 12 -43 12 -25 0z"/>
<path d="M3520 2696 c0 -3 9 -10 20 -16 11 -6 20 -8 20 -6 0 3 -9 10 -20 16
-11 6 -20 8 -20 6z"/>
<path d="M3857 2665 c17 -22 41 -49 54 -60 l23 -20 -21 30 c-12 17 -36 44 -54
60 l-33 30 31 -40z"/>
<path d="M2380 2653 c0 -5 -17 -29 -37 -54 -21 -24 -27 -35 -14 -24 32 27 65
75 57 82 -3 4 -6 2 -6 -4z"/>
<path d="M1633 2605 c-18 -8 -33 -16 -33 -19 0 -3 16 2 35 10 58 24 85 18 160
-37 39 -28 69 -55 68 -60 -2 -5 14 -9 35 -9 l37 0 -56 34 c-30 18 -75 47 -99
65 -48 35 -93 40 -147 16z"/>
<path d="M2610 2611 c0 -6 4 -13 10 -16 6 -3 7 1 4 9 -7 18 -14 21 -14 7z"/>
<path d="M3008 2613 c7 -3 16 -2 19 1 4 3 -2 6 -13 5 -11 0 -14 -3 -6 -6z"/>
<path d="M3335 2559 c-33 -21 -66 -39 -72 -39 -7 0 -13 -3 -13 -8 0 -4 -19 -7
-42 -5 -42 2 -42 1 -8 -6 l35 -7 -35 -19 c-19 -10 -53 -22 -75 -26 l-40 -6 40
-2 c24 0 62 9 93 24 93 43 156 32 232 -39 25 -24 57 -49 69 -56 24 -13 172
-30 166 -19 -3 3 -34 9 -70 12 -76 7 -95 16 -153 69 -49 45 -97 68 -143 68
l-31 0 56 46 c31 25 56 47 56 50 0 6 1 7 -65 -37z"/>
<path d="M2015 2564 c-33 -14 -76 -29 -95 -34 -23 -5 -28 -8 -13 -9 12 -1 55
12 96 28 40 16 84 31 97 34 l25 4 -25 1 c-14 1 -52 -10 -85 -24z"/>
<path d="M2282 2510 c0 -14 2 -19 5 -12 2 6 2 18 0 25 -3 6 -5 1 -5 -13z"/>
<path d="M2950 2527 c0 -7 115 -77 126 -77 5 0 -7 10 -26 21 -19 12 -50 30
-67 41 -18 11 -33 17 -33 15z"/>
<path d="M1788 2503 c12 -2 30 -2 40 0 9 3 -1 5 -23 4 -22 0 -30 -2 -17 -4z"/>
<path d="M3550 2485 c14 -15 39 -36 55 -48 29 -20 29 -19 -5 17 -19 21 -44 42
-55 48 -16 9 -16 6 5 -17z"/>
<path d="M1680 2478 c-49 -25 -88 -58 -67 -58 7 0 32 14 55 31 23 17 54 34 69
39 21 6 23 8 8 9 -11 1 -40 -9 -65 -21z"/>
<path d="M2697 2413 c-28 -92 -46 -172 -28 -123 21 59 62 202 58 206 -2 2 -16
-35 -30 -83z"/>
<path d="M3731 2474 c8 -7 58 -28 112 -47 63 -22 93 -29 84 -19 -9 8 -59 30
-112 47 -54 18 -91 27 -84 19z"/>
<path d="M2271 2461 c0 -13 -15 -96 -32 -183 -17 -88 -28 -162 -26 -164 8 -8
69 324 64 348 l-4 23 -2 -24z"/>
<path d="M2651 2244 c0 -11 3 -14 6 -6 3 7 2 16 -1 19 -3 4 -6 -2 -5 -13z"/>
<path d="M3626 2177 c28 -8 73 -26 100 -41 33 -19 41 -21 24 -7 -38 31 -89 53
-134 57 -39 4 -39 3 10 -9z"/>
<path d="M3162 2115 c-62 -29 -116 -65 -108 -72 3 -3 34 12 68 34 35 22 74 45
88 51 14 6 21 11 15 11 -5 1 -34 -10 -63 -24z"/>
<path d="M1653 2021 c-73 -35 -146 -104 -173 -164 -25 -55 -26 -143 -1 -204
66 -167 131 -316 153 -354 30 -50 135 -182 198 -249 54 -57 46 -46 -82 126
-58 78 -119 170 -136 205 -36 78 -61 183 -72 304 l-7 90 -2 -80 c-2 -78 -3
-79 -15 -45 -38 102 -25 188 42 275 41 54 142 115 190 115 15 0 54 -11 86 -25
77 -31 87 -23 12 10 -74 33 -117 32 -193 -4z"/>
<path d="M3525 2002 c33 -16 76 -42 95 -57 33 -28 34 -28 12 -3 -25 28 -130
88 -153 88 -8 0 13 -13 46 -28z"/>
<path d="M1416 1859 c-9 -23 -19 -62 -22 -88 -4 -43 -3 -42 14 19 10 36 22 75
26 88 13 38 -1 24 -18 -19z"/>
<path d="M3568 1813 c22 -58 25 -85 26 -186 l1 -117 19 42 c10 24 21 72 23
108 5 65 -11 175 -27 185 -4 3 -4 -12 1 -33 5 -20 8 -77 7 -127 -1 -49 -3 -70
-5 -45 -5 77 -24 163 -44 202 -29 57 -29 46 -1 -29z"/>
<path d="M1720 1754 c-6 -14 -10 -27 -10 -30 0 -2 -16 -24 -35 -49 -32 -43
-66 -129 -64 -164 0 -9 6 4 13 29 7 25 21 61 31 80 21 42 55 86 55 74 6 -148
20 -218 56 -281 31 -53 41 -57 15 -5 -16 32 -51 136 -51 151 0 3 18 -27 40
-67 22 -41 53 -93 69 -115 16 -23 40 -64 54 -92 13 -27 57 -99 97 -159 40 -61
94 -151 121 -200 27 -50 49 -88 49 -84 0 4 -25 61 -56 125 -51 108 -131 302
-190 463 -42 115 -25 241 41 299 20 17 32 31 27 31 -18 0 -63 -51 -82 -92 -30
-66 -27 -185 6 -263 30 -70 79 -199 89 -235 6 -23 5 -23 -15 5 -32 44 -129
243 -122 249 3 3 0 6 -6 6 -12 0 -11 179 2 215 3 11 -2 2 -13 -20 -11 -22 -23
-57 -27 -78 -10 -53 -21 -55 -43 -4 -27 63 -44 154 -37 199 7 44 0 50 -14 12z"/>
<path d="M3452 1670 c36 -74 61 -189 52 -238 -3 -20 -17 -57 -30 -81 -35 -63
-21 -63 15 1 17 29 33 73 37 97 8 52 -15 143 -53 214 -39 70 -54 75 -21 7z"/>
<path d="M3085 1654 c18 -45 25 -111 15 -162 -16 -86 -66 -167 -177 -285 -57
-60 -103 -113 -103 -118 0 -5 32 24 70 64 l70 72 -122 -200 c-118 -194 -255
-445 -244 -445 3 0 17 23 32 51 14 29 64 115 112 193 47 78 127 210 178 294
51 84 94 146 96 137 4 -20 84 97 103 151 26 73 9 238 -27 260 -8 5 -9 1 -3
-12z"/>
<path d="M3240 1666 c0 -2 12 -29 26 -60 23 -50 25 -67 22 -129 -3 -40 -8 -81
-12 -92 -3 -11 1 -4 10 15 28 57 23 154 -9 218 -24 45 -37 63 -37 48z"/>
<path d="M2090 1584 c-13 -23 -15 -24 -21 -7 -10 29 -22 -71 -15 -125 4 -26
10 -96 15 -157 15 -183 61 -351 162 -585 31 -74 69 -173 84 -220 35 -111 33
-107 34 -90 2 26 -45 181 -84 280 -106 272 -165 466 -180 600 l-6 55 28 -50
c16 -27 62 -98 102 -158 77 -115 134 -219 182 -338 17 -41 27 -60 24 -44 -16
76 -157 379 -171 367 -4 -4 -4 1 -1 11 6 15 -62 188 -81 207 -10 10 12 -48 44
-119 19 -41 32 -76 30 -78 -9 -10 -111 155 -132 212 -34 96 -38 157 -14 212
22 50 22 69 0 27z"/>
<path d="M1426 1558 c-17 -66 2 -244 37 -346 41 -118 183 -282 386 -446 64
-52 159 -134 211 -182 52 -48 73 -64 45 -35 -27 29 -117 113 -200 185 -180
159 -328 313 -373 389 -18 30 -44 87 -57 125 -27 79 -48 238 -38 295 6 40 -1
51 -11 15z"/>
<path d="M3747 1445 c3 -46 0 -84 -10 -110 l-14 -40 -14 60 -14 60 -7 -67
c-11 -117 -75 -202 -289 -390 -57 -50 -85 -84 -113 -137 -20 -39 -35 -71 -32
-71 2 0 21 27 41 60 44 72 103 134 204 215 130 102 209 183 236 240 32 68 40
146 22 205 l-14 45 4 -70z"/>
<path d="M3835 1378 c46 -102 65 -177 66 -268 1 -61 3 -70 11 -50 6 14 10 63
10 110 0 110 -27 189 -82 245 l-41 40 36 -77z"/>
<path d="M3460 1429 c0 -23 -55 -133 -110 -218 -48 -74 -59 -85 -188 -173
-170 -116 -286 -228 -374 -363 -63 -96 -111 -181 -91 -160 6 6 38 52 72 102
106 156 208 260 360 367 67 47 85 56 93 45 8 -11 9 -11 5 3 -4 10 3 22 18 32
l23 15 -19 -54 c-28 -81 -23 -88 15 -20 18 33 65 108 103 167 56 86 73 122 88
183 9 42 15 79 11 82 -3 4 -6 0 -6 -8z"/>
<path d="M3793 1344 c-16 -69 -106 -276 -149 -344 l-35 -55 32 35 c63 70 178
343 167 399 -2 9 -9 -7 -15 -35z"/>
<path d="M3028 1042 c-76 -79 -163 -194 -198 -262 -19 -38 1 -13 58 70 28 41
92 121 142 178 50 56 89 102 87 102 -2 0 -42 -40 -89 -88z"/>
<path d="M3260 899 c-36 -23 -89 -59 -118 -81 -67 -52 -236 -229 -280 -294
-19 -27 -25 -40 -15 -28 10 11 47 53 83 94 77 86 231 220 335 290 41 28 75 53
75 55 0 10 -17 2 -80 -36z"/>
<path d="M2391 864 c0 -11 3 -14 6 -6 3 7 2 16 -1 19 -3 4 -6 -2 -5 -13z"/>
<path d="M2351 364 c0 -11 3 -14 6 -6 3 7 2 16 -1 19 -3 4 -6 -2 -5 -13z"/>
</g>
</svg>